<svg class="border shadow-md" viewBox="0 0 1351.68 760.32" style="width: 1351.68px; height: 760.32px;" xmlns="http://www.w3.org/2000/svg" preserveAspectRatio="none"><rect class="bg" id="bg" x="0" y="0" width="1351.68" height="760.32" fill="#252525"/><g transform="rotate(77 675.84 380.16)"><path d="M -450.56 680.32 S -440.00 680.32&#10;            0.00 680.32 215.28 624.32&#10;            450.56 680.32 665.84 659.32&#10;            901.12 680.32 972.68 629.32&#10;            1351.68 680.32 1566.96 671.32&#10;            1802.24 680.32 h 110 V 1360.3200000000002 H -450.56 Z" fill="#DF6589"/><path d="M -450.56 105.00 S -348.00 62.50&#10;            0.00 105.00 215.28 54.00&#10;            450.56 105.00 665.84 62.50&#10;            901.12 105.00 1116.40 34.00&#10;            1351.68 105.00 1566.96 62.50&#10;            1802.24 105.00 h 110 V -600 H -450.56 Z" fill="#37E2D5"/></g></svg>