<?xml version="1.0" standalone="no"?><svg xmlns="http://www.w3.org/2000/svg" viewBox="0 0 1440 320"><path fill="#37E2D5" fill-opacity="1" d="M0,160L15,186.7C30,213,60,267,90,245.3C120,224,150,128,180,74.7C210,21,240,11,270,58.7C300,107,330,213,360,240C390,267,420,213,450,181.3C480,149,510,139,540,138.7C570,139,600,149,630,181.3C660,213,690,267,720,282.7C750,299,780,277,810,256C840,235,870,213,900,218.7C930,224,960,256,990,266.7C1020,277,1050,267,1080,229.3C1110,192,1140,128,1170,112C1200,96,1230,128,1260,160C1290,192,1320,224,1350,229.3C1380,235,1410,213,1425,202.7L1440,192L1440,320L1425,320C1410,320,1380,320,1350,320C1320,320,1290,320,1260,320C1230,320,1200,320,1170,320C1140,320,1110,320,1080,320C1050,320,1020,320,990,320C960,320,930,320,900,320C870,320,840,320,810,320C780,320,750,320,720,320C690,320,660,320,630,320C600,320,570,320,540,320C510,320,480,320,450,320C420,320,390,320,360,320C330,320,300,320,270,320C240,320,210,320,180,320C150,320,120,320,90,320C60,320,30,320,15,320L0,320Z"></path></svg>